<svg xmlns="http://www.w3.org/2000/svg" version="1.1" xmlns:xlink="http://www.w3.org/1999/xlink" xmlns:svgjs="http://svgjs.dev/svgjs" width="128" height="128" viewBox="0 0 128 128"><g transform="matrix(0.8046875,0,0,0.8046875,12.506335372881338,17.008859869597813)"><svg viewBox="0 0 59 54" data-background-color="#ffffff" preserveAspectRatio="xMidYMid meet" height="117" width="128" xmlns="http://www.w3.org/2000/svg" xmlns:xlink="http://www.w3.org/1999/xlink"><g id="tight-bounds" transform="matrix(1,0,0,1,-0.0036289999999894462,-0.04765076911958488)"><svg viewBox="0 0 59.007257999999986 54.09530153823916" height="54.09530153823916" width="59.007257999999986"><g><svg viewBox="0 0 59.007257999999986 54.09530153823916" height="54.09530153823916" width="59.007257999999986"><g><svg viewBox="0 0 59.007257999999986 54.09530153823916" height="54.09530153823916" width="59.007257999999986"><g><svg viewBox="0 0 59.007257999999986 54.09530153823916" height="54.09530153823916" width="59.007257999999986"><g id="textblocktransform"><svg viewBox="0 0 59.007257999999986 54.09530153823916" height="54.09530153823916" width="59.007257999999986" id="textblock"><g><svg viewBox="0 0 59.007257999999986 54.09530153823916" height="54.09530153823916" width="59.007257999999986"><g><svg viewBox="0 0 59.007257999999986 54.09530153823916" height="54.09530153823916" width="59.007257999999986"><g><svg xmlns="http://www.w3.org/2000/svg" xmlns:xlink="http://www.w3.org/1999/xlink" version="1.1" x="0" y="0" viewBox="0 0 100.02653474026886 91.7" style="enable-background:new 0 0 100 91.8;" xml:space="preserve" id="icon-0" width="59.007257999999986" height="54.09530153823916" class="icon-icon-0" data-fill-palette-color="accent"><path d="M84.4 1.1L83.5 0 82.2 0.6C81.9 0.7 81.6 0.9 81.3 1H81.1V1.1C68.3 7.1 59 13.2 52.2 19.3 50.7 17.9 49.1 16.5 47.4 15 31.1 1.4 14.4 4.2 3.3 7.5L0 8.5 2.7 10.7C9.8 16.5 9.2 18.3 7.1 25L7 25.4C2 40.7 5.5 54.7 16.5 64.8 29.2 77.4 44.6 87.9 50.7 91L51.8 91.5 52.3 91.7 52.6 91.6 53.9 91C55.6 90.2 62.5 85.2 65.7 82.9 72 78.5 81 71.7 87.8 65.1 96.1 57.8 112.2 37 84.4 1.1M52.3 86.6C48.7 80.7 39.4 63 39.6 51 39.3 39.3 46.3 22.1 80 5.6 79.5 7.8 79 10 78.6 12.3 73.5 36.3 67.1 65.9 52.3 86.6M45.1 17.8C46.7 19.1 48.1 20.4 49.5 21.8 38.6 32.7 35.8 43 36 51 36 51.6 36 52.3 36.1 53 34.4 47.8 32.9 42.9 31.5 38.2L30.2 33.9C27 23.5 19.5 14.8 9.5 9.7 19.4 7.5 32.4 7.3 45.1 17.8M19 62.2C11.9 55.7 4.7 44.3 10.4 26.6L10.5 26.2C12 21.5 12.9 18.4 11.4 15.1 18.7 19.8 24.2 26.9 26.7 35L28 39.3C32 52.7 36.8 68.9 46.3 84.2 39 79.4 28.2 71.2 19 62.2M85.4 62.4C77.4 70.1 66.3 78.2 59 83.2 71.6 62.4 77.5 35.3 82.3 13 82.8 10.7 83.3 8.5 83.8 6.3 100 29 100.7 48.8 85.4 62.4" fill="#ffffff" data-fill-palette-color="accent"></path></svg></g></svg></g></svg></g></svg></g></svg></g><g></g></svg></g></svg></g><defs></defs></svg><rect width="59.007257999999986" height="54.09530153823916" fill="none" stroke="none" visibility="hidden"></rect></g></svg></g></svg>