<svg xmlns="http://www.w3.org/2000/svg" version="1.1" xmlns:xlink="http://www.w3.org/1999/xlink" xmlns:svgjs="http://svgjs.dev/svgjs" width="2000" height="989" viewBox="0 0 2000 989"><g transform="matrix(1,0,0,1,-1.2121212121212466,-1.24098524154374)"><svg viewBox="0 0 396 196" data-background-color="#ffffff" preserveAspectRatio="xMidYMid meet" height="989" width="2000" xmlns="http://www.w3.org/2000/svg" xmlns:xlink="http://www.w3.org/1999/xlink"><g id="tight-bounds" transform="matrix(1,0,0,1,0.2400000000000091,0.24593843007338023)"><svg viewBox="0 0 395.52 195.50812313985324" height="195.50812313985324" width="395.52"><g><svg viewBox="0 0 395.52 195.50812313985324" height="195.50812313985324" width="395.52"><g><svg viewBox="0 0 395.52 195.50812313985324" height="195.50812313985324" width="395.52"><g transform="matrix(1,0,0,1,0,120.8318634973321)"><svg viewBox="0 0 395.52 74.67625964252116" height="74.67625964252116" width="395.52"><g id="textblocktransform"><svg viewBox="0 0 395.52 74.67625964252116" height="74.67625964252116" width="395.52" id="textblock"><g><svg viewBox="0 0 395.52 74.67625964252116" height="74.67625964252116" width="395.52"><g transform="matrix(1,0,0,1,0,0)"><svg width="395.52" viewBox="3.69 -37.55 259.5 49" height="74.67625964252116" data-palette-color="#006f42"><path d="M44.43-32.3L44.43 0 38.04 0 38.04-20.85 26.78-1.05Q26.37-0.29 25.62 0.1 24.88 0.49 24.02 0.49L24.02 0.49Q23.19 0.49 22.47 0.1 21.75-0.29 21.34-1.05L21.34-1.05 10.03-20.85 10.03 0 3.69 0 3.69-32.3Q3.69-33.4 4.33-34.25 4.98-35.11 6.03-35.4L6.03-35.4Q6.54-35.52 7.06-35.49 7.57-35.45 8.04-35.27 8.52-35.08 8.91-34.75 9.3-34.42 9.57-33.96L9.57-33.96 24.02-8.84 38.48-33.96Q39.04-34.89 40.03-35.28 41.02-35.67 42.09-35.4L42.09-35.4Q43.12-35.11 43.77-34.25 44.43-33.4 44.43-32.3L44.43-32.3ZM79.32-17.65L79.32-17.65Q79.32-16.33 78.85-14.81 78.39-13.28 77.35-11.98 76.32-10.67 74.64-9.79 72.97-8.91 70.58-8.91L70.58-8.91 59.13-8.91 59.13-14.94 70.58-14.94Q71.87-14.94 72.58-15.73 73.29-16.53 73.29-17.7L73.29-17.7Q73.29-18.95 72.5-19.65 71.7-20.36 70.58-20.36L70.58-20.36 59.13-20.36Q57.83-20.36 57.13-19.57 56.42-18.77 56.42-17.6L56.42-17.6 56.42-8.74Q56.42-7.47 57.21-6.76 58.01-6.05 59.18-6.05L59.18-6.05 70.58-6.05 70.58 0 59.13 0Q57.81 0 56.28-0.46 54.76-0.93 53.45-1.97 52.15-3 51.27-4.68 50.39-6.35 50.39-8.74L50.39-8.74 50.39-17.65Q50.39-18.97 50.85-20.5 51.32-22.02 52.35-23.33 53.39-24.63 55.06-25.51 56.74-26.39 59.13-26.39L59.13-26.39 70.58-26.39Q71.9-26.39 73.42-25.93 74.95-25.46 76.25-24.43 77.56-23.39 78.44-21.72 79.32-20.04 79.32-17.65ZM112.54-37.55L112.54-8.91Q112.54-7.28 112.13-5.97 111.71-4.66 111.03-3.67 110.35-2.69 109.44-1.99 108.54-1.29 107.55-0.85 106.56-0.42 105.55-0.21 104.54 0 103.63 0L103.63 0 92.18 0Q90.55 0 89.25-0.42 87.96-0.83 86.97-1.53 85.98-2.22 85.29-3.13 84.59-4.03 84.15-5.02 83.71-6.01 83.5-7.02 83.3-8.03 83.3-8.91L83.3-8.91 83.3-17.5Q83.3-19.95 84.19-21.64 85.08-23.34 86.41-24.4 87.74-25.46 89.3-25.93 90.86-26.39 92.18-26.39L92.18-26.39 103.63-26.39 103.63-20.04 92.23-20.04Q90.96-20.04 90.3-19.4 89.64-18.75 89.64-17.5L89.64-17.5 89.64-8.96Q89.64-7.67 90.29-7.01 90.94-6.35 92.18-6.35L92.18-6.35 103.63-6.35Q104.93-6.35 105.56-7.01 106.2-7.67 106.2-8.91L106.2-8.91 106.2-37.55 112.54-37.55ZM125.04-37.55L125.04-31.81 118.69-31.81 118.69-37.55 125.04-37.55ZM125.04-26.39L125.04 0 118.69 0 118.69-26.39 125.04-26.39ZM166.76-8.91L166.76-7.69Q166.76-6.52 166.36-5.18 165.96-3.83 165.04-2.69 164.13-1.54 162.66-0.77 161.2 0 159.07 0L159.07 0 134.98 0Q134.29 0 133.71-0.24 133.12-0.49 132.69-0.92 132.27-1.34 132.02-1.93 131.78-2.51 131.78-3.2L131.78-3.2 131.78-31.81Q131.78-32.47 132.02-33.06 132.27-33.64 132.69-34.08 133.12-34.52 133.71-34.77 134.29-35.01 134.98-35.01L134.98-35.01 156.22-35.01Q157.39-35.01 158.73-34.59 160.07-34.18 161.23-33.26 162.39-32.35 163.16-30.88 163.93-29.42 163.93-27.29L163.93-27.29 163.93-26.1Q163.93-24.41 163.37-22.47 162.81-20.53 161.56-18.8L161.56-18.8Q162.64-18.14 163.58-17.21 164.52-16.28 165.22-15.06 165.93-13.84 166.35-12.3 166.76-10.77 166.76-8.91L166.76-8.91ZM160.41-7.74L160.41-8.91Q160.41-10.16 160.02-11.15 159.63-12.13 158.93-12.84 158.22-13.55 157.22-13.93 156.22-14.31 154.97-14.31L154.97-14.31 140.66-14.31 140.66-20.7 152.11-20.7Q153.36-20.7 154.36-21.08 155.36-21.46 156.07-22.17 156.78-22.88 157.16-23.86 157.53-24.85 157.53-26.1L157.53-26.1 157.53-27.29Q157.53-28.66 156.22-28.66L156.22-28.66 138.12-28.66 138.12-6.35 159.07-6.35Q159.24-6.35 159.49-6.37 159.73-6.4 159.93-6.52 160.12-6.64 160.27-6.93 160.41-7.23 160.41-7.74L160.41-7.74ZM200.67-26.39L200.67 2.54Q200.67 4.17 200.26 5.48 199.84 6.79 199.16 7.78 198.47 8.76 197.57 9.46 196.67 10.16 195.68 10.6 194.69 11.04 193.69 11.24 192.69 11.45 191.78 11.45L191.78 11.45 180.33 11.45 180.33 5.1 191.78 5.1Q193.05 5.1 193.69 4.44 194.32 3.78 194.32 2.54L194.32 2.54 194.32-26.39 200.67-26.39ZM191.78-6.35L191.78 0 180.33 0Q178.97 0 177.42-0.46 175.87-0.93 174.52-1.99 173.18-3.05 172.3-4.75 171.42-6.45 171.42-8.91L171.42-8.91 171.42-26.39 177.77-26.39 177.77-8.91Q177.77-7.67 178.43-7.01 179.09-6.35 180.38-6.35L180.38-6.35 191.78-6.35ZM230.72-26.39L230.72-20.04 219.64-20.04 219.64 0 213.22 0 213.22-20.04 204.97-20.04 204.97-26.39 213.22-26.39 213.22-35.01 219.64-35.01 219.64-26.39 230.72-26.39ZM263.19-17.65L263.19-17.65Q263.19-16.33 262.73-14.81 262.26-13.28 261.23-11.98 260.19-10.67 258.52-9.79 256.84-8.91 254.45-8.91L254.45-8.91 243-8.91 243-14.94 254.45-14.94Q255.74-14.94 256.45-15.73 257.16-16.53 257.16-17.7L257.16-17.7Q257.16-18.95 256.37-19.65 255.57-20.36 254.45-20.36L254.45-20.36 243-20.36Q241.71-20.36 241-19.57 240.29-18.77 240.29-17.6L240.29-17.6 240.29-8.74Q240.29-7.47 241.08-6.76 241.88-6.05 243.05-6.05L243.05-6.05 254.45-6.05 254.45 0 243 0Q241.68 0 240.16-0.46 238.63-0.93 237.32-1.97 236.02-3 235.14-4.68 234.26-6.35 234.26-8.74L234.26-8.74 234.26-17.65Q234.26-18.97 234.72-20.5 235.19-22.02 236.23-23.33 237.26-24.63 238.94-25.51 240.61-26.39 243-26.39L243-26.39 254.45-26.39Q255.77-26.39 257.29-25.93 258.82-25.46 260.13-24.43 261.43-23.39 262.31-21.72 263.19-20.04 263.19-17.65Z" opacity="1" transform="matrix(1,0,0,1,0,0)" fill="#ffffff" class="wordmark-text-0" data-fill-palette-color="primary" id="text-0"></path></svg></g></svg></g></svg></g></svg></g><g transform="matrix(1,0,0,1,141.47320863392002,0)"><svg viewBox="0 0 112.57358273215993 103.20259082596426" height="103.20259082596426" width="112.57358273215993"><g><svg xmlns="http://www.w3.org/2000/svg" xmlns:xlink="http://www.w3.org/1999/xlink" version="1.1" x="0" y="0" viewBox="0 0 100.02653474026886 91.7" style="enable-background:new 0 0 100 91.8;" xml:space="preserve" id="icon-0" width="112.57358273215993" height="103.20259082596426" class="icon-icon-0" data-fill-palette-color="accent"><path d="M84.4 1.1L83.5 0 82.2 0.6C81.9 0.7 81.6 0.9 81.3 1H81.1V1.1C68.3 7.1 59 13.2 52.2 19.3 50.7 17.9 49.1 16.5 47.4 15 31.1 1.4 14.4 4.2 3.3 7.5L0 8.5 2.7 10.7C9.8 16.5 9.2 18.3 7.1 25L7 25.4C2 40.7 5.5 54.7 16.5 64.8 29.2 77.4 44.6 87.9 50.7 91L51.8 91.5 52.3 91.7 52.6 91.6 53.9 91C55.6 90.2 62.5 85.2 65.7 82.9 72 78.5 81 71.7 87.8 65.1 96.1 57.8 112.2 37 84.4 1.1M52.3 86.6C48.7 80.7 39.4 63 39.6 51 39.3 39.3 46.3 22.1 80 5.6 79.5 7.8 79 10 78.6 12.3 73.5 36.3 67.1 65.9 52.3 86.6M45.1 17.8C46.7 19.1 48.1 20.4 49.5 21.8 38.6 32.7 35.8 43 36 51 36 51.6 36 52.3 36.1 53 34.4 47.8 32.9 42.9 31.5 38.2L30.2 33.9C27 23.5 19.5 14.8 9.5 9.7 19.4 7.5 32.4 7.3 45.1 17.8M19 62.2C11.9 55.7 4.7 44.3 10.4 26.6L10.5 26.2C12 21.5 12.9 18.4 11.4 15.1 18.7 19.8 24.2 26.9 26.7 35L28 39.3C32 52.7 36.8 68.9 46.3 84.2 39 79.4 28.2 71.2 19 62.2M85.4 62.4C77.4 70.1 66.3 78.2 59 83.2 71.6 62.4 77.5 35.3 82.3 13 82.8 10.7 83.3 8.5 83.8 6.3 100 29 100.7 48.8 85.4 62.4" fill="#ffffff" data-fill-palette-color="accent"></path></svg></g></svg></g><g></g></svg></g></svg></g><defs></defs></svg><rect width="395.52" height="195.50812313985324" fill="none" stroke="none" visibility="hidden"></rect></g></svg></g></svg>